# xmcd
#
# Track frame offsets: 
#        200
#        18702
#        46650
#
# Disc length: 989 seconds
#
# Revision: 0
# Processed by: cddbd v1.5.2PL0 Copyright (c) Steve Scherf et al.
# Submitted via: ExactAudioCopy v1.3
#
DISCID=1b03db03
DTITLE=Heavy D. And The Boyz - Peaceful Journey [CDS UK)
DYEAR=1991
DGENRE=R&B
TTITLE0=Peaceful Journey (LP Edit)
TTITLE1=Peaceful Journey (Tranquil Voyage Mix)
TTITLE2=Peaceful Journey (Tranquil Voyage Instrumental)
EXTD=
EXTT0=
EXTT1=
EXTT2=
PLAYORDER=
